<svg id="Layer_1" data-name="Layer 1" xmlns="http://www.w3.org/2000/svg" viewBox="0 0 623 622"><defs><style>.cls-1{fill:#fff;}</style></defs><rect x="1" y="1" width="123" height="123"/><path d="M123,2V123H2V2H123m2-2H0V125H125V0Z"/><rect class="cls-1" x="1" y="125" width="123" height="123"/><path d="M123,126V247H2V126H123m2-2H0V249H125V124Z"/><rect class="cls-1" x="1" y="498" width="123" height="123"/><path d="M123,499V620H2V499H123m2-2H0V622H125V497Z"/><rect class="cls-1" x="1" y="373" width="123" height="123"/><path d="M123,374V495H2V374H123m2-2H0V497H125V372Z"/><rect class="cls-1" x="1" y="249" width="123" height="123"/><path d="M123,250V371H2V250H123m2-2H0V373H125V248Z"/><rect class="cls-1" x="125" y="1" width="123" height="123"/><path d="M247,2V123H126V2H247m2-2H124V125H249V0Z"/><rect class="cls-1" x="125" y="125" width="123" height="123"/><path d="M247,126V247H126V126H247m2-2H124V249H249V124Z"/><rect class="cls-1" x="125" y="498" width="123" height="123"/><path d="M247,499V620H126V499H247m2-2H124V622H249V497Z"/><rect x="125" y="373" width="123" height="123"/><path d="M247,374V495H126V374H247m2-2H124V497H249V372Z"/><rect class="cls-1" x="125" y="249" width="123" height="123"/><path d="M247,250V371H126V250H247m2-2H124V373H249V248Z"/><rect class="cls-1" x="250" y="1" width="123" height="123"/><path d="M372,2V123H251V2H372m2-2H249V125H374V0Z"/><rect class="cls-1" x="250" y="125" width="123" height="123"/><path d="M372,126V247H251V126H372m2-2H249V249H374V124Z"/><rect class="cls-1" x="250" y="498" width="123" height="123"/><path d="M372,499V620H251V499H372m2-2H249V622H374V497Z"/><rect x="250" y="373" width="123" height="123"/><path d="M372,374V495H251V374H372m2-2H249V497H374V372Z"/><rect x="250" y="249" width="123" height="123"/><path d="M372,250V371H251V250H372m2-2H249V373H374V248Z"/><rect class="cls-1" x="375" y="1" width="123" height="123"/><path d="M497,2V123H376V2H497m2-2H374V125H499V0Z"/><rect x="375" y="125" width="123" height="123"/><path d="M497,126V247H376V126H497m2-2H374V249H499V124Z"/><rect class="cls-1" x="375" y="498" width="123" height="123"/><path d="M497,499V620H376V499H497m2-2H374V622H499V497Z"/><rect class="cls-1" x="375" y="373" width="123" height="123"/><path d="M497,374V495H376V374H497m2-2H374V497H499V372Z"/><rect class="cls-1" x="375" y="249" width="123" height="123"/><path d="M497,250V371H376V250H497m2-2H374V373H499V248Z"/><rect x="499" y="1" width="123" height="123"/><path d="M621,2V123H500V2H621m2-2H498V125H623V0Z"/><rect class="cls-1" x="499" y="125" width="123" height="123"/><path d="M621,126V247H500V126H621m2-2H498V249H623V124Z"/><rect class="cls-1" x="499" y="498" width="123" height="123"/><path d="M621,499V620H500V499H621m2-2H498V622H623V497Z"/><rect class="cls-1" x="499" y="373" width="123" height="123"/><path d="M621,374V495H500V374H621m2-2H498V497H623V372Z"/><rect class="cls-1" x="499" y="249" width="123" height="123"/><path d="M621,250V371H500V250H621m2-2H498V373H623V248Z"/></svg>